<svg width="72" height="70" viewBox="0 0 72 70" fill="none" xmlns="http://www.w3.org/2000/svg">
<path d="M18.5769 51.1003L21.1028 41.7714C19.0657 38.1374 18.4185 33.8968 19.28 29.8277C20.1414 25.7586 22.4536 22.1341 25.7924 19.6192C29.1312 17.1043 33.2725 15.8677 37.4565 16.1364C41.6405 16.4051 45.5864 18.161 48.5703 21.0819C51.5541 24.0027 53.3757 27.8927 53.7007 32.038C54.0258 36.1832 52.8325 40.3057 50.3398 43.6489C47.8472 46.992 44.2224 49.3317 40.1306 50.2385C36.0388 51.1453 31.7545 50.5585 28.0638 48.5856L18.5769 51.1003ZM28.5212 45.0947L29.1079 45.4399C31.7812 47.0111 34.9035 47.6614 37.9883 47.2892C41.0731 46.917 43.9471 45.5434 46.1624 43.3824C48.3778 41.2213 49.81 38.3942 50.236 35.3417C50.6619 32.2892 50.0576 29.1827 48.5173 26.5063C46.977 23.8299 44.5871 21.7339 41.7201 20.545C38.8531 19.3562 35.6701 19.1412 32.6671 19.9336C29.664 20.7259 27.0096 22.4812 25.1175 24.9257C23.2254 27.3703 22.202 30.3669 22.2066 33.4485C22.2041 36.0036 22.9167 38.5093 24.2651 40.6867L24.633 41.2882L23.2209 46.495L28.5212 45.0947Z" fill="#00D95F"/>
<path fill-rule="evenodd" clip-rule="evenodd" d="M42.7612 35.8438C42.4173 35.5687 42.0146 35.3751 41.5837 35.2777C41.1529 35.1803 40.7054 35.1817 40.2752 35.2817C39.6288 35.548 39.2111 36.5539 38.7935 37.0568C38.7054 37.1773 38.576 37.2619 38.4295 37.2946C38.283 37.3273 38.1296 37.3058 37.9979 37.2343C35.6315 36.3152 33.6479 34.6297 32.3694 32.4515C32.2604 32.3156 32.2088 32.143 32.2255 31.9701C32.2422 31.7972 32.3259 31.6375 32.4589 31.5246C32.9248 31.0673 33.2668 30.5009 33.4534 29.8777C33.4948 29.1904 33.336 28.5058 32.9959 27.9055C32.733 27.0638 32.2327 26.3144 31.554 25.7458C31.204 25.5897 30.8158 25.5374 30.4365 25.5951C30.0571 25.6528 29.7027 25.8182 29.416 26.0712C28.9182 26.4971 28.5232 27.0282 28.2598 27.6256C27.9965 28.2229 27.8717 28.8712 27.8945 29.5227C27.896 29.8886 27.9428 30.2529 28.0337 30.6075C28.2646 31.4594 28.6197 32.2733 29.0878 33.0235C29.4255 33.5981 29.794 34.1545 30.1916 34.6901C31.4839 36.4493 33.1084 37.943 34.9748 39.0882C35.9114 39.6702 36.9125 40.1434 37.9581 40.4984C39.0444 40.9867 40.2437 41.1741 41.4287 41.0408C42.1039 40.9394 42.7436 40.6751 43.2916 40.271C43.8395 39.8669 44.2789 39.3354 44.5711 38.7234C44.7428 38.3536 44.7949 37.9403 44.7203 37.54C44.5413 36.7215 43.4375 36.2383 42.7612 35.8438Z" fill="#00D95F"/>
</svg>
