<svg width="69" height="68" viewBox="0 0 69 68" fill="none" xmlns="http://www.w3.org/2000/svg">
<g filter="url(#filter0_d_271_1517)">
<path d="M28.116 34.0955C28.116 30.7079 30.8792 27.961 34.2886 27.961C37.6981 27.961 40.4627 30.7079 40.4627 34.0955C40.4627 37.4831 37.6981 40.23 34.2886 40.23C30.8792 40.23 28.116 37.4831 28.116 34.0955ZM24.7784 34.0955C24.7784 39.3143 29.0361 43.5448 34.2886 43.5448C39.5411 43.5448 43.7988 39.3143 43.7988 34.0955C43.7988 28.8767 39.5411 24.6463 34.2886 24.6463C29.0361 24.6463 24.7784 28.8767 24.7784 34.0955ZM41.9528 24.2716C41.9527 24.7083 42.0828 25.1353 42.3269 25.4986C42.571 25.8618 42.918 26.145 43.324 26.3123C43.73 26.4796 44.1769 26.5235 44.608 26.4385C45.0392 26.3534 45.4353 26.1433 45.7462 25.8346C46.0572 25.5259 46.269 25.1325 46.3549 24.7041C46.4409 24.2758 46.397 23.8318 46.229 23.4282C46.0609 23.0247 45.7762 22.6797 45.4108 22.4369C45.0454 22.1941 44.6158 22.0644 44.1762 22.0642H44.1753C43.5861 22.0645 43.0211 22.2971 42.6044 22.711C42.1877 23.1249 41.9533 23.6862 41.9528 24.2716ZM26.8062 49.0744C25.0005 48.9927 24.0191 48.6938 23.3668 48.4413C22.5021 48.1069 21.8852 47.7085 21.2365 47.0649C20.5878 46.4212 20.1863 45.8088 19.8511 44.9496C19.5969 44.3019 19.2961 43.3264 19.214 41.5323C19.1242 39.5926 19.1063 39.0099 19.1063 34.0957C19.1063 29.1814 19.1257 28.6003 19.214 26.659C19.2963 24.8649 19.5993 23.8913 19.8511 23.2417C20.1878 22.3825 20.5887 21.7695 21.2365 21.125C21.8843 20.4805 22.5007 20.0815 23.3668 19.7485C24.0188 19.4959 25.0005 19.197 26.8062 19.1155C28.7585 19.0263 29.3449 19.0084 34.2886 19.0084C39.2323 19.0084 39.8194 19.0277 41.7733 19.1155C43.579 19.1972 44.5588 19.4982 45.2126 19.7485C46.0773 20.0815 46.6943 20.4813 47.343 21.125C47.9916 21.7686 48.3917 22.3825 48.7283 23.2417C48.9826 23.8894 49.2834 24.8649 49.3654 26.659C49.4552 28.6003 49.4732 29.1814 49.4732 34.0957C49.4732 39.0099 49.4552 39.591 49.3654 41.5323C49.2832 43.3264 48.981 44.3016 48.7283 44.9496C48.3917 45.8088 47.9908 46.4218 47.343 47.0649C46.6952 47.7079 46.0773 48.1069 45.2126 48.4413C44.5607 48.694 43.579 48.9928 41.7733 49.0744C39.821 49.1636 39.2346 49.1814 34.2886 49.1814C29.3427 49.1814 28.7579 49.1636 26.8062 49.0744ZM26.6529 15.8049C24.6812 15.8941 23.3339 16.2047 22.1574 16.6596C20.9388 17.1294 19.9073 17.7596 18.8765 18.7822C17.8457 19.8047 17.213 20.8313 16.7402 22.042C16.2824 23.2118 15.9698 24.5497 15.88 26.5087C15.7887 28.4708 15.7678 29.0981 15.7678 34.0955C15.7678 39.0929 15.7887 39.7202 15.88 41.6823C15.9698 43.6415 16.2824 44.9792 16.7402 46.149C17.213 47.359 17.8459 48.3867 18.8765 49.4088C19.9071 50.431 20.9388 51.0603 22.1574 51.5314C23.3362 51.9863 24.6812 52.2969 26.6529 52.3862C28.6287 52.4754 29.259 52.4976 34.2886 52.4976C39.3183 52.4976 39.9496 52.4768 41.9244 52.3862C43.8962 52.2969 45.2426 51.9863 46.4199 51.5314C47.6377 51.0603 48.67 50.4314 49.7007 49.4088C50.7315 48.3863 51.3629 47.359 51.837 46.149C52.2948 44.9792 52.609 43.6413 52.6973 41.6823C52.7871 39.7187 52.8079 39.0929 52.8079 34.0955C52.8079 29.0981 52.7871 28.4708 52.6973 26.5087C52.6075 24.5495 52.2948 23.211 51.837 22.042C51.3629 20.832 50.7299 19.8064 49.7007 18.7822C48.6716 17.758 47.6377 17.1294 46.4214 16.6596C45.2426 16.2047 43.896 15.8926 41.9259 15.8049C39.9511 15.7157 39.3198 15.6934 34.2901 15.6934C29.2604 15.6934 28.6287 15.7142 26.6529 15.8049Z" fill="url(#paint0_radial_271_1517)"/>
<path d="M28.116 34.0955C28.116 30.7079 30.8792 27.961 34.2886 27.961C37.6981 27.961 40.4627 30.7079 40.4627 34.0955C40.4627 37.4831 37.6981 40.23 34.2886 40.23C30.8792 40.23 28.116 37.4831 28.116 34.0955ZM24.7784 34.0955C24.7784 39.3143 29.0361 43.5448 34.2886 43.5448C39.5411 43.5448 43.7988 39.3143 43.7988 34.0955C43.7988 28.8767 39.5411 24.6463 34.2886 24.6463C29.0361 24.6463 24.7784 28.8767 24.7784 34.0955ZM41.9528 24.2716C41.9527 24.7083 42.0828 25.1353 42.3269 25.4986C42.571 25.8618 42.918 26.145 43.324 26.3123C43.73 26.4796 44.1769 26.5235 44.608 26.4385C45.0392 26.3534 45.4353 26.1433 45.7462 25.8346C46.0572 25.5259 46.269 25.1325 46.3549 24.7041C46.4409 24.2758 46.397 23.8318 46.229 23.4282C46.0609 23.0247 45.7762 22.6797 45.4108 22.4369C45.0454 22.1941 44.6158 22.0644 44.1762 22.0642H44.1753C43.5861 22.0645 43.0211 22.2971 42.6044 22.711C42.1877 23.1249 41.9533 23.6862 41.9528 24.2716ZM26.8062 49.0744C25.0005 48.9927 24.0191 48.6938 23.3668 48.4413C22.5021 48.1069 21.8852 47.7085 21.2365 47.0649C20.5878 46.4212 20.1863 45.8088 19.8511 44.9496C19.5969 44.3019 19.2961 43.3264 19.214 41.5323C19.1242 39.5926 19.1063 39.0099 19.1063 34.0957C19.1063 29.1814 19.1257 28.6003 19.214 26.659C19.2963 24.8649 19.5993 23.8913 19.8511 23.2417C20.1878 22.3825 20.5887 21.7695 21.2365 21.125C21.8843 20.4805 22.5007 20.0815 23.3668 19.7485C24.0188 19.4959 25.0005 19.197 26.8062 19.1155C28.7585 19.0263 29.3449 19.0084 34.2886 19.0084C39.2323 19.0084 39.8194 19.0277 41.7733 19.1155C43.579 19.1972 44.5588 19.4982 45.2126 19.7485C46.0773 20.0815 46.6943 20.4813 47.343 21.125C47.9916 21.7686 48.3917 22.3825 48.7283 23.2417C48.9826 23.8894 49.2834 24.8649 49.3654 26.659C49.4552 28.6003 49.4732 29.1814 49.4732 34.0957C49.4732 39.0099 49.4552 39.591 49.3654 41.5323C49.2832 43.3264 48.981 44.3016 48.7283 44.9496C48.3917 45.8088 47.9908 46.4218 47.343 47.0649C46.6952 47.7079 46.0773 48.1069 45.2126 48.4413C44.5607 48.694 43.579 48.9928 41.7733 49.0744C39.821 49.1636 39.2346 49.1814 34.2886 49.1814C29.3427 49.1814 28.7579 49.1636 26.8062 49.0744ZM26.6529 15.8049C24.6812 15.8941 23.3339 16.2047 22.1574 16.6596C20.9388 17.1294 19.9073 17.7596 18.8765 18.7822C17.8457 19.8047 17.213 20.8313 16.7402 22.042C16.2824 23.2118 15.9698 24.5497 15.88 26.5087C15.7887 28.4708 15.7678 29.0981 15.7678 34.0955C15.7678 39.0929 15.7887 39.7202 15.88 41.6823C15.9698 43.6415 16.2824 44.9792 16.7402 46.149C17.213 47.359 17.8459 48.3867 18.8765 49.4088C19.9071 50.431 20.9388 51.0603 22.1574 51.5314C23.3362 51.9863 24.6812 52.2969 26.6529 52.3862C28.6287 52.4754 29.259 52.4976 34.2886 52.4976C39.3183 52.4976 39.9496 52.4768 41.9244 52.3862C43.8962 52.2969 45.2426 51.9863 46.4199 51.5314C47.6377 51.0603 48.67 50.4314 49.7007 49.4088C50.7315 48.3863 51.3629 47.359 51.837 46.149C52.2948 44.9792 52.609 43.6413 52.6973 41.6823C52.7871 39.7187 52.8079 39.0929 52.8079 34.0955C52.8079 29.0981 52.7871 28.4708 52.6973 26.5087C52.6075 24.5495 52.2948 23.211 51.837 22.042C51.3629 20.832 50.7299 19.8064 49.7007 18.7822C48.6716 17.758 47.6377 17.1294 46.4214 16.6596C45.2426 16.2047 43.896 15.8926 41.9259 15.8049C39.9511 15.7157 39.3198 15.6934 34.2901 15.6934C29.2604 15.6934 28.6287 15.7142 26.6529 15.8049Z" fill="url(#paint1_radial_271_1517)"/>
</g>
<defs>
<filter id="filter0_d_271_1517" x="10.7678" y="10.6934" width="57.04" height="56.8042" filterUnits="userSpaceOnUse" color-interpolation-filters="sRGB">
<feFlood flood-opacity="0" result="BackgroundImageFix"/>
<feColorMatrix in="SourceAlpha" type="matrix" values="0 0 0 0 0 0 0 0 0 0 0 0 0 0 0 0 0 0 127 0" result="hardAlpha"/>
<feOffset dx="5" dy="5"/>
<feGaussianBlur stdDeviation="5"/>
<feComposite in2="hardAlpha" operator="out"/>
<feColorMatrix type="matrix" values="0 0 0 0 0.760784 0 0 0 0 0.262745 0 0 0 0 0.498039 0 0 0 0.9 0"/>
<feBlend mode="normal" in2="BackgroundImageFix" result="effect1_dropShadow_271_1517"/>
<feBlend mode="normal" in="SourceGraphic" in2="effect1_dropShadow_271_1517" result="shape"/>
</filter>
<radialGradient id="paint0_radial_271_1517" cx="0" cy="0" r="1" gradientUnits="userSpaceOnUse" gradientTransform="translate(20.689 52.6715) scale(48.3547 48.0448)">
<stop offset="0.09" stop-color="#FA8F21"/>
<stop offset="0.78" stop-color="#D82D7E"/>
</radialGradient>
<radialGradient id="paint1_radial_271_1517" cx="0" cy="0" r="1" gradientUnits="userSpaceOnUse" gradientTransform="translate(38.2319 54.3203) scale(38.1102 37.8659)">
<stop offset="0.64" stop-color="#8C3AAA" stop-opacity="0"/>
<stop offset="1" stop-color="#8C3AAA"/>
</radialGradient>
</defs>
</svg>
