<svg width="553" height="275" viewBox="0 0 553 275" fill="none" xmlns="http://www.w3.org/2000/svg">
<path fill-rule="evenodd" clip-rule="evenodd" d="M9.42899 7.324C8.61999 11.005 9.76899 12.085 16.25 13.741C25.722 16.16 25.417 12.833 22.5 82C20.372 132.449 19.179 136 4.35698 136C1.52598 136 -0.389019 139.313 0.466981 142.726C1.09998 145.247 1.16299 145.261 8.68599 144.579C15.245 143.985 24.676 143.942 48.98 144.397C57.583 144.558 57.977 136.817 49.425 135.645C34.414 133.587 34.244 133.053 35.867 93.038C36.503 77.342 37.064 59.55 37.112 53.5C37.245 36.814 37.805 36.059 42.196 46.644C47.075 58.405 60.807 90.974 61.952 93.5C63.818 97.618 74.237 121.904 78.784 132.734C83.89 144.896 84.68 145.734 88.967 143.517C93.258 141.298 95.186 137.401 104.343 112.441C108.972 99.824 115.032 83.425 117.809 76C120.586 68.575 124.945 56.65 127.496 49.5C130.047 42.35 132.498 36.129 132.943 35.675C134.901 33.674 137.419 123.209 135.607 130.428C134.871 133.361 132.025 134.818 125 135.858C120.545 136.518 120.5 136.564 120.5 140.448C120.5 143.998 180.252 147.081 183.628 143.705C185.459 141.874 182.851 136 180.205 135.994C167.927 135.969 168.231 137.064 166.058 85C162.996 11.664 162.645 15.694 172.284 13.524C177.748 12.293 178.723 11.017 177.604 6.56002C177.032 4.27902 177.032 4.27905 153.266 4.75405C125.608 5.30705 128.833 3.90804 124.977 17.02C112.749 58.596 96.53 94.259 93.151 87C90.093 80.431 72.475 40.829 66.458 27C55.725 2.33202 58.946 4.512 33.176 4.48C10.06 4.45 10.06 4.45 9.42899 7.324Z" fill="#AB2D2D"/>
<path fill-rule="evenodd" clip-rule="evenodd" d="M285.939 1.39401C285.67 1.66401 264.564 2.16002 239.038 2.49802C188.543 3.16702 190.993 2.94705 191.015 6.80905C191.038 10.8591 192.02 11.693 197.673 12.462C207.315 13.775 206.466 8.14404 206.753 72.669C207.034 136.045 207.247 133.922 200.475 135.321C192.098 137.052 191.514 137.381 191.239 140.518C191.096 142.158 191.343 144.056 191.789 144.735C192.717 146.149 299.796 146.686 301.014 145.283C301.387 144.852 304.399 140.897 307.707 136.493C318.878 121.618 322.455 119.365 322.746 127.02C323.135 137.273 323.864 139.853 327.303 143.143C331.617 147.271 338.377 146.912 345.386 142.181C351.049 138.36 351 138.366 351 141.48C351 154.863 362.505 157.817 372 146.872C384.087 132.939 387.495 129.162 387.751 129.418C392.935 134.602 385.309 151.957 375.524 157.245C372.599 158.825 355.955 173.252 352.575 177.138C350.966 178.987 346.667 183.875 343.022 188C310.948 224.295 304.305 248.103 321.301 265.838C344.891 290.452 373.904 263.91 387.802 205C391.506 189.299 392.092 185.559 393.051 171.5C394.444 151.081 393.297 153.279 408.863 141.209C427.619 126.667 426.487 126.67 424.991 141.164C422.557 164.74 424.07 176.838 429.881 180.271C433.672 182.51 435.263 180.981 433.66 176.64C429.269 164.75 433.644 130.461 441.015 119C443.668 114.875 448.39 105.65 451.508 98.5C454.626 91.35 458.29 83.025 459.65 80C466.096 65.662 475.07 40.456 476.778 31.894C480.368 13.892 463.588 10.574 455.043 27.597C454.242 29.194 453.061 31.175 452.419 32C446.835 39.174 434.741 80.72 429.885 109.403C428.52 117.468 426.13 122 423.242 122C422.355 122 420.7 122.844 419.564 123.876C415.528 127.544 397.543 140 396.282 140C394.806 140 394.731 136.091 395.948 122.5C397.23 108.171 390.961 104.363 385.532 116.174C384.01 119.487 378.313 126.111 364.893 140.173C357.542 147.875 356.102 146.515 360.89 136.394C364.243 129.306 371.282 121.509 371.817 124.289C372.261 126.595 374.286 126.446 376.553 123.941C378.901 121.347 377.825 119.384 372.557 116.65C367.826 114.195 362.1 116.691 356.269 123.75C354.339 126.087 352.201 128 351.518 128C350.835 128 346.958 130.25 342.901 133C331.455 140.759 330.119 140.292 330.33 128.606C330.593 114.09 315.637 106.2 312.269 119.079C311.993 120.135 311.278 121 310.681 121C310.084 121 308.083 122.462 306.235 124.25C302.874 127.5 302.874 127.5 305.937 119.182C309.605 109.221 309.721 107.426 306.75 106.63C300.847 105.048 300.155 105.559 295.784 114.715C287.647 131.758 282.75 134.5 260.456 134.5C237.98 134.5 239.029 136.079 239.011 102.219C238.998 77.078 237.216 79.5 255.728 79.5C271.007 79.5 272.285 80.139 275.725 89.5C280.891 103.558 284.5 96.773 284.5 73C284.5 49.103 281.092 42.612 275.881 56.583C272.392 65.937 271.158 66.5 254.172 66.5H239.5L239.233 41.464C238.897 9.91602 237.142 12.734 257.131 12.722C278.313 12.71 280.341 13.772 288.195 29C291.733 35.86 295.979 38.14 298.828 34.708C303.741 28.787 291.134 -3.79999 285.939 1.39401ZM540.169 11.25C532.975 22.309 520.987 52.9181 522.404 56.6111C522.684 57.3401 522.524 58.176 522.049 58.47C521.574 58.763 520.443 61.59 519.536 64.752C518.63 67.913 517.24 72.525 516.447 75C515.655 77.475 514.53 81.75 513.946 84.5C511.969 93.814 511.116 97.475 508.128 109.5C504.28 124.984 500.071 142.503 499.078 147.17C496.95 157.178 505.737 158.758 510.748 149.268C512.423 146.096 515.681 139.9 517.988 135.5C524.623 122.844 525.728 122.218 525.62 131.174C525.485 142.426 532.175 151.902 537.765 148.376C540.621 146.575 540.092 141.417 537.094 141.839C534.689 142.178 534.689 142.178 535.47 131.339C536.816 112.661 536.819 112.695 534 111.381C527.204 108.215 525.018 109.251 517.72 119.098C515.925 121.52 525.914 101.609 528.486 97.6371C529.81 95.5931 536.283 80.236 538.028 75C538.486 73.625 540.699 67.355 542.945 61.066C545.192 54.778 547.441 47.353 547.943 44.566C548.445 41.78 549.366 37.7 549.99 35.5C557.028 10.701 550.696 -4.93297 540.169 11.25ZM544.51 13.344C542.355 16.633 537.161 31.158 535.544 38.417C534.799 41.762 533.72 45.85 533.147 47.5C528.191 61.756 522.023 86 523.35 86C525.054 86 537.526 55.208 539.957 45C547.788 12.117 548.483 7.28002 544.51 13.344ZM466.383 23.772C464.226 25.532 459.307 34.673 457.112 41C447.791 67.867 439.802 97.1351 441.363 98.6971C441.889 99.2221 445.489 93.65 445.217 92.733C445.091 92.311 446.274 89.386 447.845 86.233C449.416 83.08 451.957 77.125 453.491 73C455.025 68.875 456.823 64.825 457.488 64C459.586 61.395 460.141 58.7131 458.784 57.7361C457.815 57.0381 457.878 56.93 459.041 57.294C460.944 57.89 468.475 36.708 469.544 27.75C470.273 21.645 469.768 21.01 466.383 23.772ZM482.362 109.422C472.39 117.958 473.151 137.821 483.698 144.3C487.003 146.33 483.506 151.428 476.282 155.111C471.557 157.52 469 157.539 469 155.167C469 152.626 467.934 151.81 466.342 153.131C460.286 158.157 469.245 168.358 477.712 166.078C493.572 161.807 498.669 144.78 486.099 138.053C478.588 134.033 484.152 118.934 494.611 114.958C498.209 113.59 497.567 110.687 493.114 108.184C487.972 105.294 487.062 105.399 482.362 109.422ZM459.472 112.765C457.579 114.118 451.552 137.241 451.615 142.912C451.68 148.755 454.811 153 459.056 153C461.145 153 461.666 151.53 459.952 150.47C458.397 149.509 459.759 142.02 463.63 130.249C467.798 117.57 467.95 114.312 464.435 112.975C461.396 111.82 460.829 111.796 459.472 112.765ZM379 164.893C322.785 211.691 300.048 266.466 336.933 266.235C359.908 266.092 381.35 225.843 386.083 173.974C387.609 157.249 387.835 157.538 379 164.893Z" fill="#3D587D"/>
</svg>
