<svg width="69" height="68" viewBox="0 0 69 68" fill="none" xmlns="http://www.w3.org/2000/svg">
<path d="M28.116 33.6984C28.116 30.3107 30.8792 27.5638 34.2886 27.5638C37.6981 27.5638 40.4627 30.3107 40.4627 33.6984C40.4627 37.086 37.6981 39.8329 34.2886 39.8329C30.8792 39.8329 28.116 37.086 28.116 33.6984ZM24.7784 33.6984C24.7784 38.9172 29.0361 43.1476 34.2886 43.1476C39.5411 43.1476 43.7988 38.9172 43.7988 33.6984C43.7988 28.4795 39.5411 24.2491 34.2886 24.2491C29.0361 24.2491 24.7784 28.4795 24.7784 33.6984ZM41.9528 23.8744C41.9527 24.3112 42.0828 24.7382 42.3269 25.1014C42.571 25.4647 42.918 25.7478 43.324 25.9151C43.73 26.0824 44.1769 26.1263 44.608 26.0413C45.0392 25.9563 45.4353 25.7461 45.7462 25.4374C46.0572 25.1287 46.269 24.7353 46.3549 24.307C46.4409 23.8787 46.397 23.4346 46.229 23.0311C46.0609 22.6275 45.7762 22.2825 45.4108 22.0397C45.0454 21.7969 44.6158 21.6672 44.1762 21.6671H44.1753C43.5861 21.6673 43.0211 21.9 42.6044 22.3138C42.1877 22.7277 41.9533 23.289 41.9528 23.8744V23.8744ZM26.8062 48.6772C25.0005 48.5955 24.0191 48.2967 23.3668 48.0442C22.5021 47.7097 21.8852 47.3113 21.2365 46.6677C20.5878 46.0241 20.1863 45.4116 19.8511 44.5525C19.5969 43.9047 19.2961 42.9293 19.214 41.1352C19.1242 39.1954 19.1063 38.6127 19.1063 33.6985C19.1063 28.7843 19.1257 28.2032 19.214 26.2618C19.2963 24.4677 19.5993 23.4942 19.8511 22.8445C20.1878 21.9853 20.5887 21.3723 21.2365 20.7278C21.8843 20.0833 22.5007 19.6844 23.3668 19.3513C24.0188 19.0987 25.0005 18.7999 26.8062 18.7183C28.7585 18.6291 29.3449 18.6113 34.2886 18.6113C39.2323 18.6113 39.8194 18.6306 41.7733 18.7183C43.579 18.8 44.5588 19.1011 45.2126 19.3513C46.0773 19.6844 46.6943 20.0842 47.343 20.7278C47.9917 21.3715 48.3917 21.9853 48.7283 22.8445C48.9826 23.4923 49.2834 24.4677 49.3654 26.2618C49.4552 28.2032 49.4732 28.7843 49.4732 33.6985C49.4732 38.6127 49.4552 39.1938 49.3654 41.1352C49.2832 42.9293 48.981 43.9044 48.7283 44.5525C48.3917 45.4116 47.9908 46.0247 47.343 46.6677C46.6952 47.3107 46.0773 47.7097 45.2126 48.0442C44.5607 48.2968 43.579 48.5956 41.7733 48.6772C39.821 48.7664 39.2346 48.7842 34.2886 48.7842C29.3427 48.7842 28.7579 48.7664 26.8062 48.6772V48.6772ZM26.6529 15.4077C24.6812 15.4969 23.3339 15.8075 22.1574 16.2624C20.9388 16.7322 19.9073 17.3625 18.8765 18.385C17.8457 19.4076 17.213 20.4341 16.7402 21.6448C16.2824 22.8146 15.9698 24.1525 15.88 26.1115C15.7887 28.0736 15.7678 28.7009 15.7678 33.6984C15.7678 38.6958 15.7887 39.3231 15.88 41.2852C15.9698 43.2443 16.2824 44.5821 16.7402 45.7519C17.213 46.9618 17.8459 47.9896 18.8765 49.0117C19.9071 50.0338 20.9388 50.6632 22.1574 51.1343C23.3362 51.5892 24.6812 51.8998 26.6529 51.989C28.6287 52.0782 29.259 52.1004 34.2886 52.1004C39.3183 52.1004 39.9496 52.0797 41.9244 51.989C43.8962 51.8998 45.2426 51.5892 46.4199 51.1343C47.6377 50.6632 48.67 50.0343 49.7007 49.0117C50.7315 47.9891 51.3629 46.9618 51.837 45.7519C52.2948 44.5821 52.609 43.2442 52.6973 41.2852C52.7871 39.3216 52.8079 38.6958 52.8079 33.6984C52.8079 28.7009 52.7871 28.0736 52.6973 26.1115C52.6075 24.1524 52.2948 22.8139 51.837 21.6448C51.3629 20.4349 50.7299 19.4092 49.7007 18.385C48.6716 17.3608 47.6377 16.7322 46.4214 16.2624C45.2426 15.8075 43.896 15.4954 41.9259 15.4077C39.9511 15.3185 39.3198 15.2963 34.2901 15.2963C29.2604 15.2963 28.6287 15.317 26.6529 15.4077Z" fill="url(#paint0_radial_271_1515)"/>
<path d="M28.116 33.6984C28.116 30.3107 30.8792 27.5638 34.2886 27.5638C37.6981 27.5638 40.4627 30.3107 40.4627 33.6984C40.4627 37.086 37.6981 39.8329 34.2886 39.8329C30.8792 39.8329 28.116 37.086 28.116 33.6984ZM24.7784 33.6984C24.7784 38.9172 29.0361 43.1476 34.2886 43.1476C39.5411 43.1476 43.7988 38.9172 43.7988 33.6984C43.7988 28.4795 39.5411 24.2491 34.2886 24.2491C29.0361 24.2491 24.7784 28.4795 24.7784 33.6984ZM41.9528 23.8744C41.9527 24.3112 42.0828 24.7382 42.3269 25.1014C42.571 25.4647 42.918 25.7478 43.324 25.9151C43.73 26.0824 44.1769 26.1263 44.608 26.0413C45.0392 25.9563 45.4353 25.7461 45.7462 25.4374C46.0572 25.1287 46.269 24.7353 46.3549 24.307C46.4409 23.8787 46.397 23.4346 46.229 23.0311C46.0609 22.6275 45.7762 22.2825 45.4108 22.0397C45.0454 21.7969 44.6158 21.6672 44.1762 21.6671H44.1753C43.5861 21.6673 43.0211 21.9 42.6044 22.3138C42.1877 22.7277 41.9533 23.289 41.9528 23.8744V23.8744ZM26.8062 48.6772C25.0005 48.5955 24.0191 48.2967 23.3668 48.0442C22.5021 47.7097 21.8852 47.3113 21.2365 46.6677C20.5878 46.0241 20.1863 45.4116 19.8511 44.5525C19.5969 43.9047 19.2961 42.9293 19.214 41.1352C19.1242 39.1954 19.1063 38.6127 19.1063 33.6985C19.1063 28.7843 19.1257 28.2032 19.214 26.2618C19.2963 24.4677 19.5993 23.4942 19.8511 22.8445C20.1878 21.9853 20.5887 21.3723 21.2365 20.7278C21.8843 20.0833 22.5007 19.6844 23.3668 19.3513C24.0188 19.0987 25.0005 18.7999 26.8062 18.7183C28.7585 18.6291 29.3449 18.6113 34.2886 18.6113C39.2323 18.6113 39.8194 18.6306 41.7733 18.7183C43.579 18.8 44.5588 19.1011 45.2126 19.3513C46.0773 19.6844 46.6943 20.0842 47.343 20.7278C47.9917 21.3715 48.3917 21.9853 48.7283 22.8445C48.9826 23.4923 49.2834 24.4677 49.3654 26.2618C49.4552 28.2032 49.4732 28.7843 49.4732 33.6985C49.4732 38.6127 49.4552 39.1938 49.3654 41.1352C49.2832 42.9293 48.981 43.9044 48.7283 44.5525C48.3917 45.4116 47.9908 46.0247 47.343 46.6677C46.6952 47.3107 46.0773 47.7097 45.2126 48.0442C44.5607 48.2968 43.579 48.5956 41.7733 48.6772C39.821 48.7664 39.2346 48.7842 34.2886 48.7842C29.3427 48.7842 28.7579 48.7664 26.8062 48.6772V48.6772ZM26.6529 15.4077C24.6812 15.4969 23.3339 15.8075 22.1574 16.2624C20.9388 16.7322 19.9073 17.3625 18.8765 18.385C17.8457 19.4076 17.213 20.4341 16.7402 21.6448C16.2824 22.8146 15.9698 24.1525 15.88 26.1115C15.7887 28.0736 15.7678 28.7009 15.7678 33.6984C15.7678 38.6958 15.7887 39.3231 15.88 41.2852C15.9698 43.2443 16.2824 44.5821 16.7402 45.7519C17.213 46.9618 17.8459 47.9896 18.8765 49.0117C19.9071 50.0338 20.9388 50.6632 22.1574 51.1343C23.3362 51.5892 24.6812 51.8998 26.6529 51.989C28.6287 52.0782 29.259 52.1004 34.2886 52.1004C39.3183 52.1004 39.9496 52.0797 41.9244 51.989C43.8962 51.8998 45.2426 51.5892 46.4199 51.1343C47.6377 50.6632 48.67 50.0343 49.7007 49.0117C50.7315 47.9891 51.3629 46.9618 51.837 45.7519C52.2948 44.5821 52.609 43.2442 52.6973 41.2852C52.7871 39.3216 52.8079 38.6958 52.8079 33.6984C52.8079 28.7009 52.7871 28.0736 52.6973 26.1115C52.6075 24.1524 52.2948 22.8139 51.837 21.6448C51.3629 20.4349 50.7299 19.4092 49.7007 18.385C48.6716 17.3608 47.6377 16.7322 46.4214 16.2624C45.2426 15.8075 43.896 15.4954 41.9259 15.4077C39.9511 15.3185 39.3198 15.2963 34.2901 15.2963C29.2604 15.2963 28.6287 15.317 26.6529 15.4077Z" fill="url(#paint1_radial_271_1515)"/>
<defs>
<radialGradient id="paint0_radial_271_1515" cx="0" cy="0" r="1" gradientUnits="userSpaceOnUse" gradientTransform="translate(20.689 52.2743) scale(48.3547 48.0448)">
<stop offset="0.09" stop-color="#FA8F21"/>
<stop offset="0.78" stop-color="#D82D7E"/>
</radialGradient>
<radialGradient id="paint1_radial_271_1515" cx="0" cy="0" r="1" gradientUnits="userSpaceOnUse" gradientTransform="translate(38.2319 53.9231) scale(38.1102 37.8659)">
<stop offset="0.64" stop-color="#8C3AAA" stop-opacity="0"/>
<stop offset="1" stop-color="#8C3AAA"/>
</radialGradient>
</defs>
</svg>
