<svg width="68" height="68" viewBox="0 0 68 68" fill="none" xmlns="http://www.w3.org/2000/svg">
<path d="M34.252 51.8262C44.4808 51.8262 52.7728 43.5823 52.7728 33.4131C52.7728 23.2438 44.4808 14.9999 34.252 14.9999C24.0233 14.9999 15.7312 23.2438 15.7312 33.4131C15.7312 43.5823 24.0233 51.8262 34.252 51.8262Z" fill="#34AADF"/>
<path d="M23.6709 33.0097C23.6709 33.0097 32.8452 29.1293 36.027 27.763C37.2467 27.2165 41.383 25.4675 41.383 25.4675C41.383 25.4675 43.2922 24.7024 43.133 26.5606C43.08 27.3258 42.6558 30.0037 42.2315 32.9004C41.5951 36.9994 40.9058 41.4809 40.9058 41.4809C40.9058 41.4809 40.7997 42.738 39.8982 42.9566C38.9967 43.1752 37.5118 42.1915 37.2467 41.9728C37.0345 41.8089 33.2694 39.3495 31.8906 38.1471C31.5194 37.8192 31.0952 37.1634 31.9436 36.3982C33.8527 34.5946 36.133 32.3539 37.5118 30.9329C38.1482 30.277 38.7845 28.7467 36.133 30.6049C32.3679 33.283 28.6558 35.797 28.6558 35.797C28.6558 35.797 27.8073 36.3435 26.2164 35.8516C24.6254 35.3598 22.7693 34.7039 22.7693 34.7039C22.7693 34.7039 21.4967 33.8841 23.6709 33.0097Z" fill="white"/>
</svg>
